<?xml version="1.0" encoding="UTF-8" standalone="no"?>
<svg
   xmlns:dc="http://purl.org/dc/elements/1.1/"
   xmlns:cc="http://creativecommons.org/ns#"
   xmlns:rdf="http://www.w3.org/1999/02/22-rdf-syntax-ns#"
   xmlns:svg="http://www.w3.org/2000/svg"
   xmlns="http://www.w3.org/2000/svg"
   xmlns:sodipodi="http://sodipodi.sourceforge.net/DTD/sodipodi-0.dtd"
   xmlns:inkscape="http://www.inkscape.org/namespaces/inkscape"
   version="1.1"
   id="svg833"
   xml:space="preserve"
   width="652.54041"
   height="246.60733"
   viewBox="0 0 652.54039 246.60733"
   sodipodi:docname="SchwarzWeissLogoNoLines.svg"
   inkscape:version="1.0.2 (e86c8708, 2021-01-15)"><metadata
     id="metadata839"><rdf:RDF><cc:Work
         rdf:about=""><dc:format>image/svg+xml</dc:format><dc:type
           rdf:resource="http://purl.org/dc/dcmitype/StillImage" /><dc:title></dc:title></cc:Work></rdf:RDF></metadata><defs
     id="defs837"><clipPath
       clipPathUnits="userSpaceOnUse"
       id="clipPath849"><path
         d="M 0,0 H 841.89 V 595.276 H 0 Z"
         id="path847" /></clipPath><clipPath
       clipPathUnits="userSpaceOnUse"
       id="clipPath873"><path
         d="M 0,0 H 841.89 V 595.276 H 0 Z"
         id="path871" /></clipPath><clipPath
       clipPathUnits="userSpaceOnUse"
       id="clipPath907"><path
         d="M 0,0 H 841.89 V 595.276 H 0 Z"
         id="path905" /></clipPath><linearGradient
       x1="0"
       y1="0"
       x2="1"
       y2="0"
       gradientUnits="userSpaceOnUse"
       gradientTransform="matrix(26.0017,-0.453861,0.453861,26.0017,-15.0413,615.6196)"
       spreadMethod="pad"
       id="linearGradient919"><stop
         style="stop-opacity:1;stop-color:#e5006f"
         offset="0"
         id="stop911" /><stop
         style="stop-opacity:1;stop-color:#e5006f"
         offset="0.0659341"
         id="stop913" /><stop
         style="stop-opacity:1;stop-color:#283583"
         offset="0.807692"
         id="stop915" /><stop
         style="stop-opacity:1;stop-color:#283583"
         offset="1"
         id="stop917" /></linearGradient><linearGradient
       x1="0"
       y1="0"
       x2="1"
       y2="0"
       gradientUnits="userSpaceOnUse"
       gradientTransform="matrix(-13.6691,-25.7079,25.7079,-13.6691,-6.8023,594.2976)"
       spreadMethod="pad"
       id="linearGradient933"><stop
         style="stop-opacity:1;stop-color:#e5006f"
         offset="0"
         id="stop925" /><stop
         style="stop-opacity:1;stop-color:#e5006f"
         offset="0.0659341"
         id="stop927" /><stop
         style="stop-opacity:1;stop-color:#283583"
         offset="0.807692"
         id="stop929" /><stop
         style="stop-opacity:1;stop-color:#283583"
         offset="1"
         id="stop931" /></linearGradient><linearGradient
       x1="0"
       y1="0"
       x2="1"
       y2="0"
       gradientUnits="userSpaceOnUse"
       gradientTransform="matrix(13.1311,-23.6891,23.6891,13.1311,5.2897,593.6946)"
       spreadMethod="pad"
       id="linearGradient947"><stop
         style="stop-opacity:1;stop-color:#e5006f"
         offset="0"
         id="stop939" /><stop
         style="stop-opacity:1;stop-color:#e5006f"
         offset="0.0659341"
         id="stop941" /><stop
         style="stop-opacity:1;stop-color:#283583"
         offset="0.807692"
         id="stop943" /><stop
         style="stop-opacity:1;stop-color:#283583"
         offset="1"
         id="stop945" /></linearGradient><linearGradient
       x1="0"
       y1="0"
       x2="1"
       y2="0"
       gradientUnits="userSpaceOnUse"
       gradientTransform="matrix(27.661,-1.44965,1.44965,27.661,10.5007,603.9426)"
       spreadMethod="pad"
       id="linearGradient961"><stop
         style="stop-opacity:1;stop-color:#e5006f"
         offset="0"
         id="stop953" /><stop
         style="stop-opacity:1;stop-color:#e5006f"
         offset="0.0659341"
         id="stop955" /><stop
         style="stop-opacity:1;stop-color:#283583"
         offset="0.807692"
         id="stop957" /><stop
         style="stop-opacity:1;stop-color:#283583"
         offset="1"
         id="stop959" /></linearGradient><linearGradient
       x1="0"
       y1="0"
       x2="1"
       y2="0"
       gradientUnits="userSpaceOnUse"
       gradientTransform="matrix(-13.0928,26.8442,26.8442,13.0928,-7.3973,611.1446)"
       spreadMethod="pad"
       id="linearGradient975"><stop
         style="stop-opacity:1;stop-color:#e5006f"
         offset="0"
         id="stop967" /><stop
         style="stop-opacity:1;stop-color:#e5006f"
         offset="0.0659341"
         id="stop969" /><stop
         style="stop-opacity:1;stop-color:#283583"
         offset="0.807692"
         id="stop971" /><stop
         style="stop-opacity:1;stop-color:#283583"
         offset="1"
         id="stop973" /></linearGradient><linearGradient
       x1="0"
       y1="0"
       x2="1"
       y2="0"
       gradientUnits="userSpaceOnUse"
       gradientTransform="matrix(14.1398,23.5326,23.5326,-14.1398,3.9107,610.8856)"
       spreadMethod="pad"
       id="linearGradient989"><stop
         style="stop-opacity:1;stop-color:#e5006f"
         offset="0"
         id="stop981" /><stop
         style="stop-opacity:1;stop-color:#e5006f"
         offset="0.0659341"
         id="stop983" /><stop
         style="stop-opacity:1;stop-color:#283583"
         offset="0.807692"
         id="stop985" /><stop
         style="stop-opacity:1;stop-color:#283583"
         offset="1"
         id="stop987" /></linearGradient><linearGradient
       x1="0"
       y1="0"
       x2="1"
       y2="0"
       gradientUnits="userSpaceOnUse"
       gradientTransform="matrix(27.7495,0.484369,0.484369,-27.7495,9.0457,600.1606)"
       spreadMethod="pad"
       id="linearGradient1003"><stop
         style="stop-opacity:1;stop-color:#e5006f"
         offset="0"
         id="stop995" /><stop
         style="stop-opacity:1;stop-color:#e5006f"
         offset="0.0659341"
         id="stop997" /><stop
         style="stop-opacity:1;stop-color:#283583"
         offset="0.807692"
         id="stop999" /><stop
         style="stop-opacity:1;stop-color:#283583"
         offset="1"
         id="stop1001" /></linearGradient></defs><sodipodi:namedview
     pagecolor="#ffffff"
     bordercolor="#666666"
     borderopacity="1"
     objecttolerance="10"
     gridtolerance="10"
     guidetolerance="10"
     inkscape:pageopacity="0"
     inkscape:pageshadow="2"
     inkscape:window-width="1461"
     inkscape:window-height="963"
     id="namedview835"
     showgrid="false"
     inkscape:snap-global="false"
     inkscape:zoom="1.2685743"
     inkscape:cx="332.83205"
     inkscape:cy="79.390748"
     inkscape:window-x="0"
     inkscape:window-y="23"
     inkscape:window-maximized="0"
     inkscape:current-layer="g841"
     fit-margin-top="0"
     fit-margin-left="0"
     fit-margin-right="0"
     fit-margin-bottom="0" /><g
     id="g841"
     inkscape:groupmode="layer"
     inkscape:label="BZND_Logo_FINAL_JUDITH"
     transform="matrix(1.3333333,0,0,-1.3333333,-258.32626,608.30798)"><g
       id="g843"
       style="fill:#000000;fill-opacity:1;stroke:#000000;stroke-opacity:1"><g
         id="g845"
         clip-path="url(#clipPath849)"
         style="fill:#000000;fill-opacity:1;stroke:#000000;stroke-opacity:1"><g
           id="g851"
           transform="translate(622.076,380.4195)"
           style="fill:#000000;fill-opacity:1;stroke:#000000;stroke-opacity:1"><path
             d="m 0,0 c -5.646,10.176 -13.383,18.263 -23.208,24.261 -5.742,3.572 -12.824,6.331 -21.246,8.278 -8.422,1.946 -18.439,2.919 -30.051,2.919 h -51.68 v -142.502 h 50.245 c 11.355,0 21.181,0.828 29.476,2.488 8.293,1.659 15.918,4.594 22.873,8.805 9.25,5.614 16.907,13.669 22.969,24.165 6.061,10.495 9.092,22.378 9.092,35.649 C 8.47,-22.155 5.646,-10.177 0,0 m -34.214,-59.432 c -3.127,-6.412 -8.039,-11.532 -14.738,-15.36 -3.893,-2.105 -7.881,-3.557 -11.963,-4.354 -4.084,-0.799 -10.496,-1.197 -19.236,-1.197 h -9.284 V 8.853 h 9.284 c 7.91,0 13.829,-0.335 17.753,-1.005 3.923,-0.67 7.766,-1.931 11.532,-3.781 7.4,-3.765 12.808,-8.981 16.221,-15.647 3.413,-6.668 5.121,-14.691 5.121,-24.069 0,-9.444 -1.565,-17.371 -4.69,-23.783"
             style="fill:#000000;fill-opacity:1;fill-rule:nonzero;stroke:#000000;stroke-opacity:1"
             id="path853" /></g><g
           id="g855"
           transform="translate(622.076,380.4195)"
           style="fill:#000000;fill-opacity:1;stroke:#000000;stroke-opacity:1"><path
             d="m 0,0 c -5.646,10.176 -13.383,18.263 -23.208,24.261 -5.742,3.572 -12.824,6.331 -21.246,8.278 -8.422,1.946 -18.439,2.919 -30.051,2.919 h -51.68 v -142.502 h 50.245 c 11.355,0 21.181,0.828 29.476,2.488 8.293,1.659 15.918,4.594 22.873,8.805 9.25,5.614 16.907,13.669 22.969,24.165 6.061,10.495 9.092,22.378 9.092,35.649 C 8.47,-22.155 5.646,-10.177 0,0 Z m -34.214,-59.432 c -3.127,-6.412 -8.039,-11.532 -14.738,-15.36 -3.893,-2.105 -7.881,-3.557 -11.963,-4.354 -4.084,-0.799 -10.496,-1.197 -19.236,-1.197 h -9.284 V 8.853 h 9.284 c 7.91,0 13.829,-0.335 17.753,-1.005 3.923,-0.67 7.766,-1.931 11.532,-3.781 7.4,-3.765 12.808,-8.981 16.221,-15.647 3.413,-6.668 5.121,-14.691 5.121,-24.069 0,-9.444 -1.565,-17.371 -4.69,-23.783 z"
             style="fill:#000000;fill-opacity:1;stroke:#000000;stroke-width:4.2;stroke-linecap:butt;stroke-linejoin:miter;stroke-miterlimit:4;stroke-dasharray:none;stroke-opacity:1"
             id="path857" /></g></g></g><g
       id="g859"
       transform="translate(423.2854,300.9381)"
       style="fill:#000000;fill-opacity:1;stroke:#000000;stroke-opacity:1"><path
         d="m 0,0 h -74.807 l 70.979,87.76 v 27.179 h -157.806 l 35.433,-27.562 h 77.473 L -117.74,-0.861 -156.717,-27.562 H 0 Z"
         style="fill:#000000;fill-opacity:1;fill-rule:nonzero;stroke:#000000;stroke-opacity:1"
         id="path861" /></g><g
       id="g863"
       transform="translate(423.2854,300.9381)"
       style="stroke:#000000;stroke-opacity:1"><path
         d="m 0,0 h -74.807 l 70.979,87.76 v 27.179 h -157.806 l 35.433,-27.562 h 77.473 L -117.74,-0.861 -156.717,-27.562 H 0 Z"
         style="fill:none;stroke:#000000;stroke-width:4.2;stroke-linecap:butt;stroke-linejoin:miter;stroke-miterlimit:4;stroke-dasharray:none;stroke-opacity:1"
         id="path865" /></g><g
       id="g867"
       style="fill:#000000;fill-opacity:1;stroke:#000000;stroke-opacity:1"><g
         id="g869"
         clip-path="url(#clipPath873)"
         style="fill:#000000;fill-opacity:1;stroke:#000000;stroke-opacity:1"><g
           id="g875"
           transform="translate(311.9137,339.9868)"
           style="fill:#000000;fill-opacity:1;stroke:#000000;stroke-opacity:1"><path
             d="m 0,0 c -5.567,5.805 -13.103,9.633 -22.608,11.484 v 0.766 c 6.77,2.934 12.012,7.034 15.723,12.297 3.711,5.264 5.567,11.341 5.567,18.231 0,5.934 -1.352,11.212 -4.053,15.839 -2.703,4.625 -6.821,8.309 -12.354,11.053 -5.34,2.616 -10.728,4.307 -16.163,5.072 -5.437,0.766 -14.014,1.149 -25.734,1.149 h -56.447 V -66.608 h 63.479 c 10.547,0 19.254,0.893 26.124,2.68 6.868,1.785 13.167,4.785 18.897,8.996 4.947,3.572 8.839,8.07 11.671,13.494 2.832,5.422 4.248,11.579 4.248,18.47 C 8.35,-13.462 5.567,-5.806 0,0 m -41.262,27.514 c -1.042,-2.33 -3.256,-4.227 -6.64,-5.694 -2.41,-1.086 -5.698,-1.723 -9.864,-1.914 -4.168,-0.192 -9.214,-0.287 -15.138,-0.287 h -5.859 v 30.145 h 3.516 c 7.356,0 13.069,-0.047 17.139,-0.143 4.068,-0.096 7.471,-0.655 10.206,-1.675 3.059,-1.148 5.191,-2.904 6.396,-5.263 1.204,-2.362 1.807,-4.723 1.807,-7.082 0,-3.063 -0.522,-5.759 -1.563,-8.087 m 8.453,-59.047 c -1.462,-2.649 -4.143,-4.771 -8.041,-6.365 -3.834,-1.595 -8.026,-2.425 -12.573,-2.488 -4.549,-0.064 -12.086,-0.095 -22.612,-0.095 h -2.728 v 35.505 h 8.187 c 5.588,0 10.948,-0.033 16.081,-0.096 5.134,-0.064 9.162,-0.512 12.086,-1.34 4.288,-1.213 7.324,-3.047 9.111,-5.503 1.787,-2.457 2.681,-5.95 2.681,-10.479 0,-3.445 -0.73,-6.493 -2.192,-9.139"
             style="fill:#000000;fill-opacity:1;fill-rule:nonzero;stroke:#000000;stroke-opacity:1"
             id="path877" /></g><g
           id="g879"
           transform="translate(311.9137,339.9868)"
           style="fill:#000000;fill-opacity:1;stroke:#000000;stroke-opacity:1"><path
             d="m 0,0 c -5.567,5.805 -13.103,9.633 -22.608,11.484 v 0.766 c 6.77,2.934 12.012,7.034 15.723,12.297 3.711,5.264 5.567,11.341 5.567,18.231 0,5.934 -1.352,11.212 -4.053,15.839 -2.703,4.625 -6.821,8.309 -12.354,11.053 -5.34,2.616 -10.728,4.307 -16.163,5.072 -5.437,0.766 -14.014,1.149 -25.734,1.149 h -56.447 V -66.608 h 63.479 c 10.547,0 19.254,0.893 26.124,2.68 6.868,1.785 13.167,4.785 18.897,8.996 4.947,3.572 8.839,8.07 11.671,13.494 2.832,5.422 4.248,11.579 4.248,18.47 C 8.35,-13.462 5.567,-5.806 0,0 Z m -41.262,27.514 c -1.042,-2.33 -3.256,-4.227 -6.64,-5.694 -2.41,-1.086 -5.698,-1.723 -9.864,-1.914 -4.168,-0.192 -9.214,-0.287 -15.138,-0.287 h -5.859 v 30.145 h 3.516 c 7.356,0 13.069,-0.047 17.139,-0.143 4.068,-0.096 7.471,-0.655 10.206,-1.675 3.059,-1.148 5.191,-2.904 6.396,-5.263 1.204,-2.362 1.807,-4.723 1.807,-7.082 0,-3.063 -0.522,-5.759 -1.563,-8.087 z m 8.453,-59.047 c -1.462,-2.649 -4.143,-4.771 -8.041,-6.365 -3.834,-1.595 -8.026,-2.425 -12.573,-2.488 -4.549,-0.064 -12.086,-0.095 -22.612,-0.095 h -2.728 v 35.505 h 8.187 c 5.588,0 10.948,-0.033 16.081,-0.096 5.134,-0.064 9.162,-0.512 12.086,-1.34 4.288,-1.213 7.324,-3.047 9.111,-5.503 1.787,-2.457 2.681,-5.95 2.681,-10.479 0,-3.445 -0.73,-6.493 -2.192,-9.139 z"
             style="fill:#000000;fill-opacity:1;stroke:#000000;stroke-width:4.2;stroke-linecap:butt;stroke-linejoin:miter;stroke-miterlimit:4;stroke-dasharray:none;stroke-opacity:1"
             id="path881" /></g></g></g><g
       id="g883"
       transform="translate(528.8121,415.8775)"><path
         d="M 0,0 H -33.688 V -81.635 L -85.654,0 h -43.928 v -142.502 h 33.687 v 97.809 l 60.485,-97.809 H 0 Z"
         style="fill:#9b9b9a;fill-opacity:1;fill-rule:nonzero;stroke:none"
         id="path885" /></g><g
       id="g887"
       transform="translate(528.8121,415.8775)"
       style="fill:#000000;fill-opacity:1;stroke:#000000;stroke-opacity:1"><path
         d="M 0,0 H -33.688 V -81.635 L -85.654,0 h -43.928 v -142.502 h 33.687 v 97.809 l 60.485,-97.809 H 0 Z"
         style="fill:#000000;fill-opacity:1;stroke:#000000;stroke-width:4.2;stroke-linecap:butt;stroke-linejoin:miter;stroke-miterlimit:4;stroke-dasharray:none;stroke-opacity:1"
         id="path889" /></g><g
       id="g891"
       transform="translate(536.582,279.954)" /><g
       id="g893"
       transform="matrix(0.99766656,0,0,0.99766656,399.9647,418.34701)"
       style="stroke-width:1.00233"><path
         d="M 0,0 V -28.488"
         style="fill:none;stroke:#ffffff;stroke-width:3.00701;stroke-linecap:butt;stroke-linejoin:miter;stroke-miterlimit:4;stroke-dasharray:none;stroke-opacity:1"
         id="path895" /></g><g
       id="g897"
       transform="translate(643.8721,433.311)" /><g
       id="g899"
       transform="translate(640.2126,437.2573)" /><g
       id="g901"
       style="fill:none;fill-opacity:1;stroke:#000000;stroke-opacity:1"><g
         id="g903"
         clip-path="url(#clipPath907)"
         style="fill:none;fill-opacity:1;stroke:#000000;stroke-opacity:1"><g
           id="g909"
           transform="translate(647.8533,429.7336)"
           style="fill:none;fill-opacity:1;stroke:#000000;stroke-opacity:1"><path
             d="m 0,0 c -0.757,0.236 -1.563,0.357 -2.4,0.343 -4.176,-0.072 -7.502,-3.493 -7.428,-7.64 0.073,-4.148 3.518,-7.452 7.695,-7.38 2.793,0.048 5.206,1.594 6.475,3.853 0.401,0.714 0.688,1.498 0.837,2.33 0.085,0.472 0.125,0.959 0.116,1.457"
             style="fill:none;fill-opacity:1;stroke:#000000;stroke-width:5;stroke-linecap:round;stroke-linejoin:round;stroke-miterlimit:4;stroke-dasharray:none;stroke-opacity:1"
             id="path921" /></g><g
           id="g923"
           transform="translate(612.0856,427.6572)"
           style="fill:none;fill-opacity:1;stroke:#000000;stroke-opacity:1"><path
             d="m 0,0 c 3.375,-2.327 7.8,-2.678 11.603,-0.508 5.594,3.19 7.725,10.623 4.761,16.602 -1.111,2.239 -2.778,3.957 -4.724,5.062"
             style="fill:none;fill-opacity:1;stroke:#000000;stroke-width:5;stroke-linecap:round;stroke-linejoin:round;stroke-miterlimit:4;stroke-dasharray:none;stroke-opacity:1"
             id="path935" /></g><g
           id="g937"
           transform="translate(633.6285,452.787)"
           style="fill:none;fill-opacity:1;stroke:#000000;stroke-opacity:1"><path
             d="m 0,0 c 0.001,-3.373 2.282,-6.632 6.327,-8.367 5.949,-2.553 13.462,-0.846 16.78,3.812 1.243,1.745 1.722,3.656 1.522,5.499"
             style="fill:none;fill-opacity:1;stroke:#000000;stroke-width:5;stroke-linecap:round;stroke-linejoin:round;stroke-miterlimit:4;stroke-dasharray:none;stroke-opacity:1"
             id="path949" /></g><g
           id="g951"
           transform="translate(667.714,449.7629)"
           style="fill:none;fill-opacity:1;stroke:#000000;stroke-opacity:1"><path
             d="m 0,0 c -3.367,-2.299 -5.511,-6.468 -5.275,-11.107 0.348,-6.823 5.711,-12.079 11.979,-11.741 2.348,0.127 4.489,1.021 6.232,2.447"
             style="fill:none;fill-opacity:1;stroke:#000000;stroke-width:5;stroke-linecap:round;stroke-linejoin:round;stroke-miterlimit:4;stroke-dasharray:none;stroke-opacity:1"
             id="path963" /></g><g
           id="g965"
           transform="translate(611.1676,416.0419)"
           style="fill:none;fill-opacity:1;stroke:#000000;stroke-opacity:1"><path
             d="m 0,0 c 3.268,2.529 7.655,3.04 11.519,0.911 5.683,-3.13 8.083,-10.781 5.361,-17.091 -1.019,-2.362 -2.613,-4.202 -4.505,-5.414"
             style="fill:none;fill-opacity:1;stroke:#000000;stroke-width:5;stroke-linecap:round;stroke-linejoin:round;stroke-miterlimit:4;stroke-dasharray:none;stroke-opacity:1"
             id="path977" /></g><g
           id="g979"
           transform="translate(633.0468,391.4653)"
           style="fill:none;fill-opacity:1;stroke:#000000;stroke-opacity:1"><path
             d="m 0,0 c -0.097,3.598 2.086,7.169 6.079,9.19 5.871,2.973 13.43,1.466 16.883,-3.365 1.293,-1.809 1.828,-3.827 1.681,-5.801"
             style="fill:none;fill-opacity:1;stroke:#000000;stroke-width:5;stroke-linecap:round;stroke-linejoin:round;stroke-miterlimit:4;stroke-dasharray:none;stroke-opacity:1"
             id="path991" /></g><g
           id="g993"
           transform="translate(667.305,395.6884)"
           style="fill:none;fill-opacity:1;stroke:#000000;stroke-opacity:1"><path
             d="m 0,0 c -3.468,2.268 -5.778,6.513 -5.716,11.323 0.091,7.074 5.277,12.694 11.584,12.552 2.363,-0.052 4.547,-0.906 6.35,-2.325"
             style="fill:none;fill-opacity:1;stroke:#000000;stroke-width:5;stroke-linecap:round;stroke-linejoin:round;stroke-miterlimit:4;stroke-dasharray:none;stroke-opacity:1"
             id="path1005" /></g></g></g><g
       id="g1007"
       transform="matrix(1.0197483,0,0,1.0160026,305.18258,303.07754)"
       style="stroke-width:0.98244"><path
         d="M 0,0 17.313,22.17 16.536,26.062 -3.856,-0.062"
         style="fill:#ffffff;fill-opacity:1;fill-rule:nonzero;stroke:none;stroke-width:0.98244"
         id="path1009" /></g></g></svg>
